<svg width="18" height="18" viewBox="0 0 18 18" fill="none" xmlns="http://www.w3.org/2000/svg">
    <g opacity="0.7">
        <path fill-rule="evenodd" clip-rule="evenodd" d="M9 1.5C4.85775 1.5 1.5 4.85775 1.5 9C1.5 13.1423 4.85775 16.5 9 16.5C13.1423 16.5 16.5 13.1423 16.5 9C16.5 4.85775 13.1423 1.5 9 1.5ZM9 15C5.69175 15 3 12.3082 3 9C3 5.69175 5.69175 3 9 3C12.3082 3 15 5.69175 15 9C15 12.3082 12.3082 15 9 15ZM9.00002 6.45002C9.45602 6.45002 9.82502 6.08102 9.82502 5.62502C9.82502 5.16902 9.45602 4.80002 9.00002 4.80002C8.54402 4.80002 8.17502 5.16902 8.17502 5.62502C8.17502 6.08102 8.54402 6.45002 9.00002 6.45002ZM7.5 7.5H9.75V11.25H11.0625V12.75H6.9375V11.25H8.25V9H7.5V7.5Z" fill="white"/>
    </g>
</svg>
