<svg width="30" height="30" viewBox="0 0 30 30" fill="none" xmlns="http://www.w3.org/2000/svg">
<path d="M13.7528 21.2957C14.1434 21.2957 14.4949 21.6081 14.4949 22.0377C14.4949 22.4283 14.1824 22.7797 13.7528 22.7797C13.3623 22.7797 13.0108 22.4673 13.0108 22.0377C13.0108 21.6081 13.3623 21.2957 13.7528 21.2957ZM25.2348 16.7654C24.8443 16.7654 24.4928 16.4529 24.4928 16.0233C24.4928 15.6328 24.8052 15.2813 25.2348 15.2813C25.6254 15.2813 25.9769 15.5937 25.9769 16.0233C25.9769 16.4139 25.6254 16.7654 25.2348 16.7654ZM25.2348 13.7582C23.9851 13.7582 22.9697 14.7736 22.9697 16.0233C22.9697 16.2576 23.0087 16.492 23.0868 16.7263L15.6274 20.7099C15.1978 20.085 14.4949 19.7335 13.7528 19.7335C12.8936 19.7335 12.1125 20.2412 11.722 20.9832L5.00463 17.4683C4.30165 17.0778 3.75488 15.9452 3.83299 14.8517C3.87205 14.3049 4.06732 13.8753 4.3407 13.7191C4.53597 13.6019 4.73124 13.641 5.00463 13.7582L5.04368 13.7972C6.84019 14.7345 12.6593 17.7808 12.8936 17.8979C13.2842 18.0542 13.4794 18.1323 14.1434 17.8198L26.1721 11.5711C26.3674 11.493 26.5627 11.3368 26.5627 11.0634C26.5627 10.7119 26.2112 10.5557 26.2112 10.5557C25.5082 10.2433 24.4538 9.73555 23.4383 9.2669C21.2513 8.25148 18.7518 7.07985 17.6583 6.49403C16.721 5.98632 15.9399 6.41592 15.8227 6.49403L15.5493 6.61119C10.5894 9.11068 4.02826 12.3522 3.63772 12.5865C2.97379 12.9771 2.54419 13.7972 2.50514 14.8126C2.42703 16.4139 3.24717 18.0932 4.41881 18.679L11.5267 22.3501C11.6829 23.4437 12.6593 24.3029 13.7528 24.3029C15.0026 24.3029 15.9789 23.3265 16.018 22.0768L23.8289 17.8589C24.2194 18.1713 24.7271 18.3275 25.2348 18.3275C26.4846 18.3275 27.5 17.3121 27.5 16.0624C27.5 14.7736 26.4846 13.7582 25.2348 13.7582Z" fill="white"/>
</svg>
