<svg width="30" height="30" viewBox="0 0 30 30" fill="none" xmlns="http://www.w3.org/2000/svg">
<path d="M23.2433 7.5075C21.6833 6.7925 20.0358 6.28625 18.3433 6C18.112 6.41375 17.902 6.84 17.7158 7.27625C15.9133 7.005 14.0808 7.005 12.2783 7.27625C12.092 6.84 11.882 6.415 11.6508 6C9.95702 6.28875 8.30952 6.79625 6.74702 7.51125C3.64577 12.0988 2.80577 16.5725 3.22577 20.9838C5.04202 22.325 7.07452 23.3463 9.23577 24C9.72202 23.345 10.1533 22.6513 10.5233 21.925C9.82077 21.6625 9.14202 21.3388 8.49702 20.9575C8.66702 20.8338 8.83327 20.7075 8.99452 20.5837C12.7995 22.3738 17.2045 22.3738 21.0095 20.5837C21.172 20.7163 21.3383 20.8438 21.507 20.9575C20.8595 21.34 20.1808 21.6638 19.477 21.9275C19.847 22.6538 20.277 23.3475 20.7645 24.0013C22.927 23.3488 24.9608 22.3288 26.7783 20.9863C27.272 15.8713 25.9358 11.4388 23.2483 7.50875L23.2433 7.5075ZM11.0545 18.2713C9.88327 18.2713 8.91577 17.2088 8.91577 15.9012C8.91577 14.5938 9.84952 13.5213 11.0508 13.5213C12.252 13.5213 13.212 14.5938 13.192 15.9012C13.172 17.2088 12.2483 18.2713 11.0545 18.2713ZM18.9445 18.2713C17.772 18.2713 16.807 17.2088 16.807 15.9012C16.807 14.5938 17.7408 13.5213 18.9445 13.5213C20.1483 13.5213 21.1008 14.5938 21.0795 15.9012C21.0583 17.2088 20.1383 18.2713 18.9445 18.2713Z" fill="white"/>
</svg>
