<svg width="30" height="30" viewBox="0 0 30 30" fill="none" xmlns="http://www.w3.org/2000/svg">
<path fill-rule="evenodd" clip-rule="evenodd" d="M9.5175 22.0174C13.3932 22.0174 16.535 18.8756 16.535 14.9999C16.535 11.1243 13.3932 7.98242 9.5175 7.98242C5.64184 7.98242 2.5 11.1243 2.5 14.9999C2.5 18.8756 5.64184 22.0174 9.5175 22.0174ZM20.8 21.6511C22.7378 21.6511 24.3088 18.6733 24.3088 14.9999C24.3088 11.3265 22.7378 8.34863 20.8 8.34863C18.8622 8.34863 17.2913 11.3265 17.2913 14.9999C17.2913 18.6733 18.8622 21.6511 20.8 21.6511ZM27.5001 15C27.5001 18.3054 26.9734 20.985 26.3238 20.985C25.6742 20.985 25.1476 18.3054 25.1476 15C25.1476 11.6946 25.6742 9.01498 26.3238 9.01498C26.9734 9.01498 27.5001 11.6946 27.5001 15Z" fill="white"/>
</svg>
