<svg width="30" height="30" viewBox="0 0 30 30" fill="none" xmlns="http://www.w3.org/2000/svg">
<path d="M26.3356 7.52131C25.9631 7.68631 25.5793 7.82631 25.1868 7.94006C25.6506 7.41506 26.0043 6.79756 26.2206 6.12256C26.2693 5.97131 26.2193 5.80506 26.0943 5.70631C25.9706 5.60756 25.7968 5.59506 25.6606 5.67631C24.8281 6.17006 23.9306 6.52506 22.9881 6.73256C22.0393 5.80631 20.7518 5.27881 19.4193 5.27881C16.6081 5.27881 14.3206 7.56631 14.3206 10.3776C14.3206 10.5988 14.3343 10.8188 14.3618 11.0363C10.8731 10.7301 7.63059 9.01506 5.40309 6.28381C5.32434 6.18631 5.20184 6.13381 5.07684 6.14381C4.95184 6.15381 4.83934 6.22381 4.77559 6.33256C4.32434 7.10756 4.08559 7.99381 4.08559 8.89631C4.08559 10.1251 4.52434 11.2901 5.29934 12.2013C5.06434 12.1201 4.83559 12.0176 4.61684 11.8963C4.49934 11.8313 4.35684 11.8326 4.24059 11.8988C4.12434 11.9651 4.05059 12.0888 4.04809 12.2226C4.04809 12.2451 4.04809 12.2676 4.04809 12.2901C4.04809 14.1238 5.03559 15.7751 6.54434 16.6751C6.41434 16.6626 6.28559 16.6438 6.15684 16.6188C6.02434 16.5938 5.88809 16.6401 5.79809 16.7413C5.70809 16.8426 5.67934 16.9838 5.72059 17.1126C6.27934 18.8563 7.71684 20.1388 9.45559 20.5301C8.01434 21.4326 6.36559 21.9063 4.63434 21.9063C4.27309 21.9063 3.91059 21.8851 3.55434 21.8426C3.37809 21.8213 3.20934 21.9263 3.14934 22.0938C3.08934 22.2613 3.15309 22.4488 3.30309 22.5451C5.52684 23.9713 8.09809 24.7238 10.7381 24.7238C15.9293 24.7238 19.1756 22.2763 20.9856 20.2226C23.2431 17.6626 24.5368 14.2726 24.5368 10.9238C24.5368 10.7838 24.5343 10.6426 24.5306 10.5013C25.4206 9.83006 26.1881 9.01881 26.8118 8.08506C26.9068 7.94381 26.8968 7.75631 26.7868 7.62506C26.6768 7.49506 26.4943 7.45256 26.3381 7.52131H26.3356Z" fill="white"/>
</svg>
