<svg width="240" height="37" viewBox="0 0 240 37" fill="none" xmlns="http://www.w3.org/2000/svg">
    <path d="M114.811 9.14111L104.539 12.8805V28.7574L125.083 36.2416V27.1006L114.811 30.8427V9.14111Z" fill="#191919"/>
    <path d="M135.354 7.48424L114.811 0V9.14108L125.082 5.39896V27.1005L135.354 23.3584V7.48424Z" fill="#5637FB"/>
    <path d="M9.90035 6.69788H14.6295V24.416C14.6295 26.1461 15.5759 27.0545 17.2137 27.0545C18.9791 27.0545 19.798 25.9915 19.798 24.3835V6.69788H24.5272V24.2045C24.5272 27.6022 22.6046 29.9993 17.5608 29.9993C14.6295 29.9993 12.989 29.0584 12.2649 28.0876C11.5409 29.0584 9.90035 29.9993 6.96902 29.9993C1.92258 29.9993 0 27.6022 0 24.2045V6.69788H4.72917V24.3862C4.72917 25.9942 5.5481 27.0572 7.3134 27.0572C8.95397 27.0572 9.89764 26.1461 9.89764 24.4187V6.69788H9.90035Z" fill="#191919"/>
    <path d="M29.0371 6.69788H41.6464V9.64005H33.7663V16.102H41.1746V19.0442H33.7663V26.5989H41.9637V29.5411H29.0371V6.69788Z" fill="#191919"/>
    <path d="M55.425 11.8257C55.425 10.0956 54.4786 9.1872 52.8407 9.1872C51.0754 9.1872 50.2565 10.2502 50.2565 11.8582V29.5438H45.5273V12.0372C45.5273 8.63944 47.4499 6.24231 52.4937 6.24231C55.425 6.24231 57.0655 7.18326 57.7896 8.15404C58.5136 7.18326 60.1542 6.24231 63.0855 6.24231C68.1292 6.24231 70.0518 8.63944 70.0518 12.0372V29.5438H65.3226V11.8555C65.3226 10.2475 64.5037 9.18448 62.7384 9.18448C61.0978 9.18448 60.1542 10.0956 60.1542 11.8229V29.5438H55.425V11.8257Z" fill="#191919"/>
    <path d="M79.2897 29.5438H74.5605V6.69788H79.2897V29.5438Z" fill="#191919"/>
    <path d="M82.6923 6.69788H87.454L90.765 13.7971L94.0434 6.69788H98.8349L93.1296 17.9839L99.0573 29.5438H94.1383L90.765 21.989L87.3916 29.5438H82.4727L88.4004 17.9839L82.695 6.69788H82.6923Z" fill="#191919"/>
    <path d="M148.038 13.8268L148.006 15.6165L149.077 13.8268L153.806 6.69775H158.945L151.284 17.6502L159.577 29.5437H154.281L149.204 21.8669L148.006 19.7735L148.038 21.9591V29.5437H143.342V6.69775H148.038V13.8268Z" fill="#5637FB"/>
    <path d="M182.37 17.3466V29.5438H177.893V12.9212H181.738L182.085 14.155C182.809 13.271 184.007 12.4493 185.995 12.4493C189.306 12.4493 191.353 14.2201 191.353 17.2517V29.5438H186.876V17.3466C186.876 16.1128 186.12 15.2912 184.639 15.2912C183.159 15.2912 182.37 16.1128 182.37 17.3466Z" fill="#5637FB"/>
    <path d="M198.507 29.5437L193.559 12.9211H198.036L201.029 25.3406L204.023 12.9211H208.5L203.551 29.5437H198.507Z" fill="#5637FB"/>
    <path d="M231.297 24.0147V25.0885C231.297 26.3196 231.802 27.1412 233.41 27.1412C235.018 27.1412 235.522 26.3196 235.522 25.0885V24.7089C235.522 23.8248 235.237 23.3503 234.009 22.8758L230.573 21.6121C228.019 20.6332 226.98 19.5594 226.98 17.7561V17.2517C226.98 14.3123 229.155 12.4493 233.412 12.4493C237.67 12.4493 239.655 14.315 239.655 17.2517V17.8835H235.178V17.3466C235.178 16.1128 234.673 15.2912 233.317 15.2912C231.962 15.2912 231.457 16.1128 231.457 17.3466V17.3792C231.457 18.1059 231.804 18.7377 233.223 19.2746L236.973 20.6956C238.99 21.4548 239.999 22.5287 239.999 24.4567V25.1834C239.999 28.2178 237.824 29.9858 233.41 29.9858C228.995 29.9858 226.82 28.2151 226.82 25.1834V24.0147H231.297Z" fill="#5637FB"/>
    <path d="M223.825 29.5437H220.043L219.728 28.0902C219.004 29.1966 217.805 30.0182 215.66 30.0182C212.35 30.0182 210.332 27.9655 210.332 25.0559V17.5662C210.332 14.3745 212.13 12.4465 215.69 12.4465C217.865 12.4465 219.001 13.2682 219.63 14.1522L219.977 12.9184H223.823V29.541L223.825 29.5437ZM219.348 17.3465C219.348 16.1127 218.687 15.2911 217.079 15.2911C215.471 15.2911 214.809 16.1127 214.809 17.3465V24.9637C214.809 26.1948 215.566 27.1764 217.079 27.1764C218.592 27.1764 219.348 26.1975 219.348 24.9637V17.3465Z" fill="#5637FB"/>
    <path d="M174.486 29.5437H170.703L170.388 28.0902C169.664 29.1966 168.466 30.0182 166.321 30.0182C163.01 30.0182 160.992 27.9655 160.992 25.0559V17.5662C160.992 14.3745 162.79 12.4465 166.35 12.4465C168.525 12.4465 169.661 13.2682 170.291 14.1522L170.638 12.9184H174.483V29.541L174.486 29.5437ZM170.009 17.3465C170.009 16.1127 169.347 15.2911 167.739 15.2911C166.131 15.2911 165.469 16.1127 165.469 17.3465V24.9637C165.469 26.1948 166.226 27.1764 167.739 27.1764C169.252 27.1764 170.009 26.1975 170.009 24.9637V17.3465Z" fill="#5637FB"/>
</svg>
