<svg width="240" height="37" viewBox="0 0 240 37" fill="none" xmlns="http://www.w3.org/2000/svg">
<g opacity="0.5">
<path d="M114.811 9.14062L104.539 12.88V28.7569L125.083 36.2412V27.1001L114.811 30.8422V9.14062Z" fill="#868E96"/>
<path d="M135.356 7.48424L114.812 0V9.14108L125.084 5.39896V27.1005L135.356 23.3584V7.48424Z" fill="#868E96"/>
<path d="M9.89764 6.69727H14.6268V24.4181C14.6268 26.1482 15.5732 27.0566 17.211 27.0566C18.9763 27.0566 19.7953 25.9936 19.7953 24.3856V6.69727H24.5244V24.2039C24.5244 27.6016 22.6019 29.9987 17.5581 29.9987C14.6268 29.9987 12.9862 29.0578 12.2622 28.087C11.5382 29.0578 9.89764 29.9987 6.96631 29.9987C1.92258 29.9987 0 27.6016 0 24.2039V6.69727H4.72917V24.3856C4.72917 25.9936 5.5481 27.0566 7.3134 27.0566C8.95397 27.0566 9.89764 26.1454 9.89764 24.4181V6.69727Z" fill="#868E96"/>
<path d="M29.0312 6.69727H41.6406V9.63944H33.7604V16.1014H41.1687V19.0435H33.7604V26.5983H41.9578V29.5405H29.0312V6.69727Z" fill="#868E96"/>
<path d="M55.4211 11.8255C55.4211 10.0955 54.4747 9.18707 52.8368 9.18707C51.0715 9.18707 50.2526 10.2501 50.2526 11.8581V29.5464H45.5234V12.037C45.5234 8.63931 47.446 6.24219 52.4897 6.24219C55.4211 6.24219 57.0616 7.18314 57.7857 8.15392C58.5097 7.18314 60.1502 6.24219 63.0816 6.24219C68.1253 6.24219 70.0479 8.63931 70.0479 12.037V29.5437H65.3187V11.8554C65.3187 10.2473 64.4998 9.18436 62.7345 9.18436C61.0939 9.18436 60.1502 10.0955 60.1502 11.8228V29.5437H55.4211V11.8255Z" fill="#868E96"/>
<path d="M79.2878 29.5432H74.5586V6.69727H79.2878V29.5459V29.5432Z" fill="#868E96"/>
<path d="M82.6884 6.69727H87.4501L90.7611 13.7964L94.0395 6.69727H98.831L93.1257 17.9833L99.0534 29.5432H94.1344L90.7611 21.9884L87.3877 29.5432H82.4688L88.3965 17.9833L82.6911 6.69727H82.6884Z" fill="#868E96"/>
<path d="M148.04 13.8282L148.008 15.6179L149.079 13.8282L153.808 6.69922H158.947L151.286 17.6517L159.579 29.5451H154.283L149.206 21.8684L148.008 19.7749L148.04 21.9606V29.5451H143.344V6.69922H148.04V13.8282Z" fill="#868E96"/>
<path d="M182.368 17.3485V29.5456H177.891V12.923H181.736L182.083 14.1568C182.807 13.2728 184.005 12.4512 185.993 12.4512C189.304 12.4512 191.351 14.2219 191.351 17.2536V29.5456H186.874V17.3485C186.874 16.1147 186.118 15.293 184.637 15.293C183.157 15.293 182.368 16.1147 182.368 17.3485Z" fill="#868E96"/>
<path d="M198.511 29.5445L193.562 12.9219H198.039L201.033 25.3414L204.027 12.9219H208.504L203.555 29.5445H198.511Z" fill="#868E96"/>
<path d="M231.297 24.0165V25.0903C231.297 26.3214 231.802 27.1431 233.41 27.1431C235.018 27.1431 235.522 26.3214 235.522 25.0903V24.7107C235.522 23.8267 235.237 23.3521 234.009 22.8776L230.573 21.6139C228.019 20.635 226.98 19.5612 226.98 17.7579V17.2536C226.98 14.3141 229.155 12.4512 233.412 12.4512C237.67 12.4512 239.655 14.3168 239.655 17.2536V17.8854H235.178V17.3485C235.178 16.1147 234.673 15.293 233.317 15.293C231.962 15.293 231.457 16.1147 231.457 17.3485V17.381C231.457 18.1077 231.804 18.7396 233.223 19.2765L236.973 20.6974C238.99 21.4567 239.999 22.5305 239.999 24.4585V25.1852C239.999 28.2196 237.824 29.9876 233.41 29.9876C228.995 29.9876 226.82 28.2169 226.82 25.1852V24.0165H231.297Z" fill="#868E96"/>
<path d="M223.829 29.5464H220.046L219.732 28.0929C219.008 29.1993 217.809 30.0209 215.664 30.0209C212.353 30.0209 210.336 27.9682 210.336 25.0585V17.5689C210.336 14.3772 212.134 12.4492 215.694 12.4492C217.869 12.4492 219.005 13.2709 219.634 14.1549L219.981 12.9211H223.827V29.5437L223.829 29.5464ZM219.352 17.3492C219.352 16.1154 218.691 15.2938 217.083 15.2938C215.475 15.2938 214.813 16.1154 214.813 17.3492V24.9663C214.813 26.1974 215.569 27.1791 217.083 27.1791C218.596 27.1791 219.352 26.2002 219.352 24.9663V17.3492Z" fill="#868E96"/>
<path d="M174.486 29.5464H170.703L170.388 28.0929C169.664 29.1993 168.466 30.0209 166.321 30.0209C163.01 30.0209 160.992 27.9682 160.992 25.0585V17.5689C160.992 14.3772 162.79 12.4492 166.35 12.4492C168.525 12.4492 169.661 13.2709 170.291 14.1549L170.638 12.9211H174.483V29.5437L174.486 29.5464ZM170.009 17.3492C170.009 16.1154 169.347 15.2938 167.739 15.2938C166.131 15.2938 165.469 16.1154 165.469 17.3492V24.9663C165.469 26.1974 166.226 27.1791 167.739 27.1791C169.252 27.1791 170.009 26.2002 170.009 24.9663V17.3492Z" fill="#868E96"/>
</g>
</svg>
