<?xml version="1.0" encoding="UTF-8"?>
<svg id="Layer_2" data-name="Layer 2" xmlns="http://www.w3.org/2000/svg" viewBox="0 0 240.617 55.504" width="100" height="100">
  <defs>
    <style>
      .cls-1 {
        fill: current;
      }
    </style>
  </defs>
  <g id="Layer_1-2" data-name="Layer 1">
    <g>
      <polygon class="cls-1" points="40.882 13.507 25.226 13.507 12.685 30.351 12.685 0 0 0 0 54.91 12.685 54.91 12.685 37.549 25.298 54.91 41.032 54.91 23.665 34.283 40.882 13.507"/>
      <path class="cls-1" d="m58.543,20.405v-6.898h-12.69v41.404h12.69v-19.216c0-3.415.787-5.802,2.372-7.164,1.584-1.357,3.956-2.668,7.125-2.668h3.488v-12.799c-2.724,0-5.198.657-7.42,1.966-2.227,1.309-4.082,3.101-5.565,5.377Z"/>
      <path class="cls-1" d="m106.38,15.511c-3.266-1.734-6.927-2.599-10.985-2.599s-7.715.865-10.98,2.599c-3.266,1.729-5.835,4.217-7.715,7.454-1.884,3.241-2.821,6.99-2.821,11.241,0,4.304.927,8.067,2.782,11.28,1.855,3.217,4.401,5.691,7.642,7.42,3.237,1.734,6.889,2.599,10.946,2.599s7.724-.865,11.014-2.599c3.29-1.729,5.889-4.217,7.792-7.459,1.903-3.237,2.86-6.985,2.86-11.241s-.942-8-2.821-11.241c-1.879-3.237-4.454-5.724-7.715-7.454Zm-4.937,26.337c-1.705,1.783-3.773,2.671-6.193,2.671s-4.444-.889-6.048-2.671c-1.609-1.778-2.415-4.328-2.415-7.642,0-3.362.816-5.922,2.449-7.676,1.633-1.758,3.686-2.638,6.159-2.638,2.425,0,4.464.894,6.12,2.671,1.657,1.783,2.488,4.328,2.488,7.642s-.855,5.864-2.56,7.642Z"/>
      <path class="cls-1" d="m175.09,13.062c-2.918,0-5.613.715-8.087,2.15s-4.425,3.29-5.86,5.565c-1.386-2.473-3.304-4.377-5.753-5.715-2.449-1.333-5.232-2-8.347-2-2.623,0-4.971.507-7.048,1.522s-3.758,2.386-5.043,4.116v-5.193h-12.69v41.404h12.69v-22.482c0-2.671.705-4.739,2.111-6.198,1.411-1.459,3.352-2.188,5.826-2.188s4.415.729,5.826,2.188c1.411,1.459,2.116,3.526,2.116,6.198v22.482h12.613v-22.482c0-2.671.705-4.739,2.116-6.198,1.406-1.459,3.348-2.188,5.821-2.188s4.415.729,5.826,2.188c1.411,1.459,2.116,3.526,2.116,6.198v22.482h12.613v-24.192c0-5.536-1.522-9.864-4.565-12.985-3.038-3.116-7.135-4.671-12.28-4.671Z"/>
      <path class="cls-1" d="m227.927,13.507v5.86c-1.184-1.927-2.879-3.488-5.082-4.671-2.203-1.188-4.763-1.783-7.681-1.783-3.41,0-6.502.865-9.275,2.599-2.768,1.729-4.956,4.203-6.565,7.42-1.609,3.212-2.411,6.947-2.411,11.202s.802,8,2.411,11.241,3.797,5.739,6.565,7.492c2.773,1.758,5.84,2.638,9.202,2.638,2.918,0,5.478-.594,7.681-1.783,2.198-1.188,3.918-2.744,5.154-4.676v5.864h12.69V13.507h-12.69Zm-2.633,28.197c-1.758,1.831-3.894,2.744-6.42,2.744s-4.662-.927-6.415-2.782c-1.758-1.855-2.638-4.367-2.638-7.531s.879-5.652,2.638-7.459c1.754-1.802,3.894-2.705,6.415-2.705s4.662.913,6.42,2.744c1.754,1.831,2.633,4.328,2.633,7.492s-.879,5.666-2.633,7.497Z"/>
    </g>
  </g>
</svg>