<svg width="140" height="34" viewBox="0 0 140 34" fill="none" xmlns="http://www.w3.org/2000/svg">
<g clip-path="url(#clip0_715_5285)">
<path d="M16.8312 0.709473L0 11.4616L8.41503 16.8389L16.8312 11.4616L25.2463 16.8389L33.6613 11.4616L16.8312 0.709473Z" fill="url(#paint0_linear_715_5285)"/>
<path d="M33.6613 11.4619L16.8312 22.2152L0 11.4619V22.2152L16.8312 32.9687L33.6613 22.2152V11.4619Z" fill="url(#paint1_linear_715_5285)"/>
<path d="M90.7079 8.60791H85.1482C81.605 8.60791 78.7334 11.4796 78.7334 15.0227V18.6582C78.7334 22.2013 81.605 25.073 85.1482 25.073H90.7079C94.2511 25.073 97.1227 22.2013 97.1227 18.6582V15.0227C97.1227 11.4796 94.2511 8.60791 90.7079 8.60791ZM92.8463 18.6582C92.8463 19.8396 91.8882 20.7965 90.7079 20.7965H85.1482C83.9669 20.7965 83.0098 19.8385 83.0098 18.6582V15.0227C83.0098 13.8413 83.9679 12.8844 85.1482 12.8844H90.7079C91.8895 12.8844 92.8463 13.8413 92.8463 15.0227V18.6582Z" fill="#191B1F"/>
<path d="M115.783 8.82178H100.815C99.9295 8.82178 99.2114 9.54 99.2114 10.4255V24.8587H103.488V13.0983H107.764V24.8587H112.041V13.0983H114.714C115.599 13.0983 116.318 13.8165 116.318 14.702V24.8587H120.594V13.6329C120.594 10.9753 118.439 8.82178 115.783 8.82178Z" fill="#191B1F"/>
<path d="M61.8384 13.6329V24.8587H66.1148V14.702C66.1148 13.8165 66.8332 13.0983 67.7187 13.0983H77.341V8.82178H66.6497C63.9919 8.82178 61.8384 10.9753 61.8384 13.6329Z" fill="#191B1F"/>
<path d="M134.922 8.82178H123.375V13.0983H133.852C134.738 13.0983 135.456 13.8165 135.456 14.702V15.2366H127.33C124.672 15.2366 122.519 17.39 122.519 20.0477C122.519 22.7053 124.674 24.8587 127.33 24.8587H138.129C139.015 24.8587 139.733 24.1406 139.733 23.2551V13.6329C139.733 10.9753 137.579 8.82178 134.922 8.82178ZM135.361 20.636H126.997C126.671 20.636 126.408 20.3728 126.408 20.0477C126.408 19.7225 126.671 19.4593 126.997 19.4593H135.361C135.686 19.4593 135.95 19.7225 135.95 20.0477C135.95 20.3728 135.686 20.636 135.361 20.636Z" fill="#191B1F"/>
<path d="M60.3395 8.92823H54.9308L49.1173 15.219V8.82178H44.7344V24.8587H49.1173V18.4568L55.1495 24.8587H60.4508L53.0066 16.9467L60.3395 8.92823Z" fill="#191B1F"/>
</g>
<defs>
<linearGradient id="paint0_linear_715_5285" x1="16.8306" y1="0.709473" x2="16.8306" y2="16.8389" gradientUnits="userSpaceOnUse">
<stop stop-color="#70DE2C"/>
<stop offset="1" stop-color="#70DE2C" stop-opacity="0.8"/>
</linearGradient>
<linearGradient id="paint1_linear_715_5285" x1="16.8306" y1="11.4619" x2="16.8306" y2="32.9687" gradientUnits="userSpaceOnUse">
<stop stop-color="#70DE2C"/>
<stop offset="1" stop-color="#70DE2C" stop-opacity="0.8"/>
</linearGradient>
<clipPath id="clip0_715_5285">
<rect width="140" height="32.5806" fill="white" transform="translate(0 0.709473)"/>
</clipPath>
</defs>
</svg>
