<svg width="160" height="38" viewBox="0 0 160 38" fill="none" xmlns="http://www.w3.org/2000/svg">
<path d="M19.2357 0L0 12.2881L9.61718 18.4336L19.2357 12.2881L28.8529 18.4336L38.47 12.2881L19.2357 0Z" fill="url(#paint0_linear_553_3181)"/>
<path d="M38.47 12.2883L19.2357 24.5778L0 12.2883V24.5778L19.2357 36.8675L38.47 24.5778V12.2883Z" fill="url(#paint1_linear_553_3181)"/>
<path d="M103.666 9.02661H97.3124C93.263 9.02661 89.9812 12.3085 89.9812 16.3578V20.5127C89.9812 24.5619 93.263 27.8439 97.3124 27.8439H103.666C107.716 27.8439 110.998 24.5619 110.998 20.5127V16.3578C110.998 12.3085 107.716 9.02661 103.666 9.02661ZM106.11 20.5127C106.11 21.8629 105.015 22.9564 103.666 22.9564H97.3124C95.9624 22.9564 94.8686 21.8615 94.8686 20.5127V16.3578C94.8686 15.0076 95.9635 13.9141 97.3124 13.9141H103.666C105.017 13.9141 106.11 15.0076 106.11 16.3578V20.5127Z" fill="#6A7181"/>
<path d="M132.323 9.27124H115.217C114.205 9.27124 113.384 10.0921 113.384 11.1041V27.5992H118.272V14.1587H123.159V27.5992H128.046V14.1587H131.101C132.113 14.1587 132.934 14.9795 132.934 15.9915V27.5992H137.822V14.7696C137.822 11.7324 135.359 9.27124 132.323 9.27124Z" fill="#6A7181"/>
<path d="M70.6724 14.7696V27.5992H75.5598V15.9915C75.5598 14.9795 76.3808 14.1587 77.3928 14.1587H88.3897V9.27124H76.171C73.1336 9.27124 70.6724 11.7324 70.6724 14.7696Z" fill="#6A7181"/>
<path d="M154.196 9.27124H141V14.1587H152.974C153.986 14.1587 154.807 14.9795 154.807 15.9915V16.6024H145.52C142.483 16.6024 140.022 19.0635 140.022 22.1008C140.022 25.1381 142.484 27.5992 145.52 27.5992H157.862C158.874 27.5992 159.694 26.7784 159.694 25.7664V14.7696C159.694 11.7324 157.233 9.27124 154.196 9.27124ZM154.699 22.7732H145.139C144.767 22.7732 144.467 22.4725 144.467 22.1008C144.467 21.7292 144.767 21.4284 145.139 21.4284H154.699C155.07 21.4284 155.371 21.7292 155.371 22.1008C155.371 22.4725 155.07 22.7732 154.699 22.7732Z" fill="#6A7181"/>
<path d="M68.9593 9.3929H62.7779L56.1339 16.5824V9.27124H51.1248V27.5992H56.1339V20.2827L63.0279 27.5992H69.0865L60.5788 18.5569L68.9593 9.3929Z" fill="#6A7181"/>
<defs>
<linearGradient id="paint0_linear_553_3181" x1="19.235" y1="0" x2="19.235" y2="18.4336" gradientUnits="userSpaceOnUse">
<stop stop-color="#6A7181"/>
<stop offset="1" stop-color="#6A7181" stop-opacity="0.8"/>
</linearGradient>
<linearGradient id="paint1_linear_553_3181" x1="19.235" y1="12.2883" x2="19.235" y2="36.8675" gradientUnits="userSpaceOnUse">
<stop stop-color="#6A7181"/>
<stop offset="1" stop-color="#6A7181" stop-opacity="0.8"/>
</linearGradient>
</defs>
</svg>
